<svg xmlns="http://www.w3.org/2000/svg" width="218.13" height="218.13" viewBox="0 0 218.13 218.13"><defs><style>.cls-1,.cls-2{fill:#e21a21;}.cls-2{fill-rule:evenodd;}</style></defs><g id="Layer_2" data-name="Layer 2"><g id="Layer_1-2" data-name="Layer 1"><path class="cls-1" d="M74.23,210.62l-1.72-3.51A.86.86,0,0,1,73.65,206l1.37.58a5.22,5.22,0,0,1,2.63,2.48l1.71,3.51a.87.87,0,0,1-1.15,1.11l-1.36-.59a5.1,5.1,0,0,1-2.62-2.47Z"/><path class="cls-1" d="M81.4,212.8l-2-3.38a.86.86,0,0,1,1.07-1.18l1.4.48A5.18,5.18,0,0,1,84.7,211l2,3.38a.86.86,0,0,1-1.06,1.19l-1.4-.48a5.16,5.16,0,0,1-2.79-2.29Z"/><path class="cls-1" d="M88.7,214.48l-2.19-3.23a.87.87,0,0,1,1-1.27l1.43.39a5.17,5.17,0,0,1,3,2.09l2.19,3.23a.87.87,0,0,1-1,1.26l-1.44-.39a5.1,5.1,0,0,1-2.94-2.08Z"/><path class="cls-1" d="M96.11,215.64l-2.4-3.07a.86.86,0,0,1,.88-1.33l1.45.29a5.24,5.24,0,0,1,3.09,1.87l2.4,3.08a.87.87,0,0,1-.89,1.33l-1.45-.29a5.11,5.11,0,0,1-3.08-1.88Z"/><path class="cls-1" d="M103.57,216.29l-2.61-2.9a.86.86,0,0,1,.8-1.38l1.46.18a5.11,5.11,0,0,1,3.21,1.65l2.62,2.9a.87.87,0,0,1-.8,1.39l-1.47-.19a5.22,5.22,0,0,1-3.21-1.65Z"/><path class="cls-1" d="M111.07,216.41l-2.81-2.71a.86.86,0,0,1,.7-1.44l1.48.09a5.19,5.19,0,0,1,3.31,1.41l2.81,2.72a.86.86,0,0,1-.69,1.44l-1.48-.08a5.17,5.17,0,0,1-3.32-1.43Z"/><path class="cls-1" d="M118.55,216l-3-2.51a.86.86,0,0,1,.59-1.48l1.49,0a5.13,5.13,0,0,1,3.4,1.19l3,2.51a.86.86,0,0,1-.6,1.47l-1.48,0a5.1,5.1,0,0,1-3.41-1.18Z"/><path class="cls-1" d="M126,215.09l-3.17-2.29a.87.87,0,0,1,.49-1.52l1.49-.13a5.13,5.13,0,0,1,3.47.95l3.17,2.29a.86.86,0,0,1-.49,1.52l-1.48.13a5.19,5.19,0,0,1-3.48-.95Z"/><path class="cls-1" d="M133.35,213.65,130,211.58a.87.87,0,0,1,.38-1.55l1.47-.23a5.2,5.2,0,0,1,3.54.71l3.31,2.07a.86.86,0,0,1-.38,1.55l-1.46.23a5.21,5.21,0,0,1-3.55-.71Z"/><polygon class="cls-2" points="84.66 192.11 77.82 193.72 77.28 200.78 73.64 194.77 66.75 196.44 71.34 191.12 67.62 185.09 74.1 187.81 78.69 182.41 78.11 189.41 84.66 192.11 84.66 192.11"/><polygon class="cls-2" points="118.29 195.13 112.59 199.23 114.8 205.96 109.13 201.81 103.41 205.99 105.61 199.31 99.87 195.16 106.9 195.19 109.07 188.45 111.21 195.15 118.29 195.13 118.29 195.13"/><path class="cls-1" d="M109.06,35.93a73.14,73.14,0,1,0,73.14,73.12,73.22,73.22,0,0,0-73.14-73.12Zm0,147.94a74.81,74.81,0,1,1,74.8-74.82,74.89,74.89,0,0,1-74.8,74.82Z"/><polygon class="cls-1" points="74.6 165.94 76.67 167.24 75.75 168.7 69.84 164.99 70.76 163.53 72.86 164.85 76.77 158.62 78.51 159.72 74.6 165.94 74.6 165.94"/><path class="cls-1" d="M8.75,70.7l3.57-1.58a.86.86,0,0,1,1.07,1.18l-.63,1.35a5.19,5.19,0,0,1-2.56,2.54L6.63,75.78a.87.87,0,0,1-1.07-1.19l.63-1.34A5.17,5.17,0,0,1,8.75,70.7Z"/><path class="cls-1" d="M6.32,77.8,9.77,76a.87.87,0,0,1,1.15,1.11l-.53,1.38A5.13,5.13,0,0,1,8,81.16L4.56,83a.87.87,0,0,1-1.15-1.11l.53-1.38A5.19,5.19,0,0,1,6.32,77.8Z"/><path class="cls-1" d="M4.39,85,7.7,83a.87.87,0,0,1,1.23,1l-.44,1.42A5.14,5.14,0,0,1,6.3,88.28L3,90.34a.85.85,0,0,1-1.22-1l.43-1.42A5.14,5.14,0,0,1,4.39,85Z"/><path class="cls-1" d="M3,92.39,6.13,90.1A.86.86,0,0,1,7.42,91l-.34,1.45a5.12,5.12,0,0,1-2,3L1.94,97.79a.86.86,0,0,1-1.29-.93L1,95.42a5.2,5.2,0,0,1,2-3Z"/><path class="cls-1" d="M2.06,99.83l3-2.51a.87.87,0,0,1,1.36.84l-.24,1.47a5.15,5.15,0,0,1-1.76,3.15l-3,2.5a.86.86,0,0,1-1.36-.83L.29,103a5.22,5.22,0,0,1,1.77-3.15Z"/><path class="cls-1" d="M1.68,107.32l2.81-2.72a.86.86,0,0,1,1.4.75l-.12,1.48a5.15,5.15,0,0,1-1.55,3.26l-2.81,2.72A.87.87,0,0,1,0,112.06l.14-1.48a5.11,5.11,0,0,1,1.54-3.26Z"/><path class="cls-1" d="M1.82,114.81l2.61-2.9a.87.87,0,0,1,1.46.64l0,1.49a5.18,5.18,0,0,1-1.31,3.36l-2.61,2.9a.86.86,0,0,1-1.46-.64l0-1.49a5.1,5.1,0,0,1,1.31-3.36Z"/><path class="cls-1" d="M2.48,122.28l2.4-3.08a.86.86,0,0,1,1.5.54l.08,1.49a5.21,5.21,0,0,1-1.07,3.44L3,127.74a.86.86,0,0,1-1.5-.54l-.08-1.48a5.13,5.13,0,0,1,1.08-3.44Z"/><path class="cls-1" d="M3.66,129.68l2.19-3.24a.86.86,0,0,1,1.53.43l.18,1.48a5.11,5.11,0,0,1-.83,3.5l-2.19,3.24A.86.86,0,0,1,3,134.66l-.18-1.47a5.19,5.19,0,0,1,.83-3.51Z"/><path class="cls-1" d="M5.35,137l2-3.38a.86.86,0,0,1,1.56.33l.28,1.45a5.1,5.1,0,0,1-.58,3.56l-1.95,3.38A.87.87,0,0,1,5.05,142l-.28-1.45A5.27,5.27,0,0,1,5.35,137Z"/><path class="cls-1" d="M7.56,144.14l1.71-3.51a.86.86,0,0,1,1.58.22l.38,1.43a5.2,5.2,0,0,1-.33,3.6l-1.71,3.51a.87.87,0,0,1-1.59-.22l-.38-1.43a5.19,5.19,0,0,1,.34-3.6Z"/><path class="cls-1" d="M10.25,151.14l1.46-3.62a.87.87,0,0,1,1.6.1l.48,1.4a5.15,5.15,0,0,1-.08,3.61l-1.46,3.62a.86.86,0,0,1-1.59-.11l-.49-1.4a5.18,5.18,0,0,1,.08-3.6Z"/><path class="cls-1" d="M13.43,157.92l1.2-3.71a.86.86,0,0,1,1.6,0l.57,1.37a5.14,5.14,0,0,1,.18,3.6l-1.21,3.72a.86.86,0,0,1-1.59,0l-.58-1.36a5.17,5.17,0,0,1-.17-3.61Z"/><path class="cls-1" d="M17.07,164.47l.94-3.78a.87.87,0,0,1,1.6-.12l.67,1.32a5.19,5.19,0,0,1,.42,3.58l-.95,3.79a.86.86,0,0,1-1.59.12l-.67-1.33a5.18,5.18,0,0,1-.42-3.58Z"/><path class="cls-1" d="M21.16,170.75l.68-3.84a.87.87,0,0,1,1.58-.24l.76,1.28a5.16,5.16,0,0,1,.67,3.54l-.68,3.85a.86.86,0,0,1-1.58.23l-.76-1.27a5.23,5.23,0,0,1-.67-3.55Z"/><path class="cls-1" d="M25.67,176.73l.42-3.88a.86.86,0,0,1,1.56-.34l.84,1.22a5.09,5.09,0,0,1,.92,3.48L29,181.1a.86.86,0,0,1-1.56.33l-.84-1.21a5.23,5.23,0,0,1-.93-3.49Z"/><path class="cls-1" d="M30.61,182.39l.13-3.91a.86.86,0,0,1,1.53-.44l.94,1.15a5.12,5.12,0,0,1,1.15,3.42l-.13,3.9a.86.86,0,0,1-1.53.44l-.93-1.15a5.14,5.14,0,0,1-1.16-3.41Z"/><path class="cls-1" d="M35.91,187.68l-.14-3.91a.87.87,0,0,1,1.5-.55l1,1.09a5.18,5.18,0,0,1,1.4,3.32l.13,3.9a.86.86,0,0,1-1.5.55l-1-1.08a5.15,5.15,0,0,1-1.4-3.32Z"/><path class="cls-1" d="M41.58,192.58l-.41-3.88a.86.86,0,0,1,1.45-.65l1.08,1a5.12,5.12,0,0,1,1.63,3.22l.41,3.89a.86.86,0,0,1-1.45.65l-1.09-1a5.06,5.06,0,0,1-1.62-3.22Z"/><path class="cls-1" d="M47.57,197.09l-.68-3.85a.86.86,0,0,1,1.41-.75l1.15.93a5.21,5.21,0,0,1,1.84,3.1l.68,3.85a.86.86,0,0,1-1.4.76l-1.16-.94a5.13,5.13,0,0,1-1.84-3.1Z"/><path class="cls-1" d="M53.86,201.16l-1-3.79a.87.87,0,0,1,1.36-.85l1.21.86a5.1,5.1,0,0,1,2.05,3l.95,3.79a.86.86,0,0,1-1.35.84l-1.21-.84a5.12,5.12,0,0,1-2.06-3Z"/><path class="cls-1" d="M60.42,204.79l-1.21-3.72a.86.86,0,0,1,1.29-.94l1.27.77A5.14,5.14,0,0,1,64,203.71l1.21,3.72a.87.87,0,0,1-1.3.94l-1.26-.77a5.17,5.17,0,0,1-2.26-2.81Z"/><path class="cls-1" d="M67.22,207.94l-1.46-3.61a.87.87,0,0,1,1.22-1l1.31.68a5.1,5.1,0,0,1,2.45,2.65l1.47,3.62a.86.86,0,0,1-1.22,1l-1.32-.68a5.1,5.1,0,0,1-2.45-2.65Z"/><polygon class="cls-2" points="26.03 84.66 24.42 77.82 17.35 77.28 23.36 73.63 21.69 66.75 27.02 71.34 33.04 67.62 30.32 74.1 35.73 78.69 28.72 78.1 26.03 84.66 26.03 84.66"/><polygon class="cls-2" points="23.01 118.29 18.9 112.59 12.17 114.8 16.32 109.13 12.15 103.41 18.82 105.61 22.97 99.87 22.94 106.89 29.68 109.07 22.99 111.21 23.01 118.29 23.01 118.29"/><polygon class="cls-2" points="33.09 150.52 27.12 146.82 21.74 151.44 23.41 144.61 17.36 140.93 24.37 140.41 26 133.52 28.66 140.02 35.72 139.45 30.36 143.99 33.09 150.52 33.09 150.52"/><polygon class="cls-2" points="54.74 176.44 47.8 175.31 44.6 181.63 43.53 174.69 36.53 173.6 42.81 170.44 41.68 163.44 46.63 168.43 52.93 165.2 49.72 171.45 54.74 176.44 54.74 176.44"/><path class="cls-1" d="M64.69,162.82a.91.91,0,0,1-1.31.08.9.9,0,0,1-.05-1.29.89.89,0,0,1,1.27-.09.9.9,0,0,1,.09,1.3Zm.52-1.47,3.46-3.92c1-1.17,1.11-2.16.33-2.86s-1.75-.53-2.81.67l-3.46,3.92-1.53-1.35L64.57,154c1.85-2.1,3.79-2.17,5.57-.61s1.88,3.36,0,5.53l-3.35,3.8-1.55-1.36ZM62.59,161a.91.91,0,1,1-.08-1.29.89.89,0,0,1,.08,1.29Z"/><path class="cls-1" d="M59.9,150.34l-.51-.63c-.64-.8-1.42-.94-2-.45s-.61,1.23,0,2a4,4,0,0,0,.64.68l1.94-1.57Zm-1.75,4a17.48,17.48,0,0,1-1.87-2A4.63,4.63,0,0,1,55,149.64a2.3,2.3,0,0,1,.95-1.84,2.42,2.42,0,0,1,2.74-.17l0,0a2.24,2.24,0,0,1,.55-2,24.63,24.63,0,0,0,1.52-2.19l1.32,1.64a10.92,10.92,0,0,1-1.24,1.82c-.73.9-.72,1.4-.21,2l.39.48,2.77-2.24,1.28,1.58-6.95,5.63Z"/><path class="cls-1" d="M51.53,145.85l-1-1.77,3.48-2,0,0c-.4,0-.79,0-1.17,0l-3.64-.29-1.26-2.18,4.85.68,2.94-5.34L56.89,137l-2.29,3.88,1.22.2,2.57-1.48,1,1.76-7.87,4.53Z"/><path class="cls-1" d="M45.69,134.34l8.38-3.5.79,1.9-8.37,3.5-.8-1.9Zm-.58,2.36a.93.93,0,0,1-1.22-.52.9.9,0,0,1,.52-1.18.91.91,0,0,1,1.19.47.94.94,0,0,1-.49,1.23Z"/><path class="cls-1" d="M52.36,125.91l-3.58,1-4.4,4.2-.63-2.26,1.85-1.48c.56-.45,1-.76,1.49-1.14v0c-.6,0-1.16-.11-1.85-.2l-2.35-.3-.62-2.22,5.9,1.47,3.65-1,.55,2Z"/><polygon class="cls-1" points="46.2 113.88 46.6 117.2 48.74 116.94 48.29 113.24 49.96 113.03 50.65 118.78 41.64 119.87 40.97 114.31 42.64 114.11 43.07 117.62 44.94 117.4 44.54 114.08 46.2 113.88 46.2 113.88"/><path class="cls-1" d="M50.34,99.5a5.65,5.65,0,0,1,.15,2.35c-.32,3.13-2.43,4.53-5,4.26a4.62,4.62,0,0,1-4.29-5.42,5.33,5.33,0,0,1,.64-2.19l1.57.59a4.39,4.39,0,0,0-.51,1.68A2.73,2.73,0,0,0,45.59,104a2.71,2.71,0,0,0,3.25-2.59,5.19,5.19,0,0,0-.12-1.73l1.62-.14Z"/><path class="cls-1" d="M42.82,92.67l5,1.38c1.51.41,2.43,0,2.7-1s-.28-1.81-1.83-2.24l-5-1.37.54-2,4.91,1.34c2.71.74,3.62,2.46,3,4.74S50,96.76,47.17,96l-4.89-1.34.54-2Z"/><path class="cls-1" d="M54.23,78.67c-1-.45-2.19-1-3.37-1.58l0,0c.91.77,1.9,1.68,2.7,2.47l2.68,2.56-.71,1.43-3.58-.69c-1.08-.2-2.38-.5-3.53-.83l0,0c1.08.59,2.31,1.25,3.3,1.81l3,1.68-.85,1.7L46,82.72l1.21-2.45,3.11.55c1.07.22,2.21.47,3.25.76v0c-.82-.7-1.76-1.51-2.53-2.22l-2.27-2.21L50,74.71l8.35,3.58-.89,1.8-3.18-1.42Z"/><polygon class="cls-1" points="54 68.74 56.76 70.87 58.83 68.19 56.06 66.06 57.31 64.44 64.5 69.99 63.25 71.61 60.24 69.29 58.18 71.97 61.19 74.29 59.93 75.92 52.74 70.37 54 68.74 54 68.74"/><path class="cls-1" d="M207.89,67l-1.46,3.62a.87.87,0,0,1-1.6-.11l-.48-1.4a5.15,5.15,0,0,1,.08-3.61l1.46-3.62a.86.86,0,0,1,1.59.11l.48,1.4a5.15,5.15,0,0,1-.07,3.61Z"/><path class="cls-1" d="M204.71,60.2l-1.21,3.72a.86.86,0,0,1-1.59,0l-.58-1.37a5.14,5.14,0,0,1-.17-3.6l1.2-3.72a.86.86,0,0,1,1.6,0l.58,1.36a5.15,5.15,0,0,1,.17,3.6Z"/><path class="cls-1" d="M201.07,53.66l-.95,3.79a.86.86,0,0,1-1.59.12l-.67-1.33a5.19,5.19,0,0,1-.43-3.58l.95-3.79a.87.87,0,0,1,1.6-.11l.66,1.32a5.13,5.13,0,0,1,.43,3.58Z"/><path class="cls-1" d="M197,47.38l-.68,3.85a.87.87,0,0,1-1.58.22L194,50.18a5.11,5.11,0,0,1-.67-3.54l.67-3.85a.86.86,0,0,1,1.58-.23l.76,1.27a5.18,5.18,0,0,1,.68,3.55Z"/><path class="cls-1" d="M192.46,41.4l-.41,3.89a.86.86,0,0,1-1.56.33l-.85-1.21a5.17,5.17,0,0,1-.92-3.49l.41-3.88a.86.86,0,0,1,1.56-.34l.85,1.22a5.13,5.13,0,0,1,.92,3.48Z"/><path class="cls-1" d="M187.53,35.75l-.13,3.9a.86.86,0,0,1-1.53.45l-.93-1.16a5.07,5.07,0,0,1-1.16-3.41l.13-3.91a.86.86,0,0,1,1.53-.44l.93,1.15a5.09,5.09,0,0,1,1.16,3.42Z"/><path class="cls-1" d="M182.23,30.45l.13,3.91a.86.86,0,0,1-1.49.55l-1-1.08a5.18,5.18,0,0,1-1.41-3.33l-.13-3.91a.87.87,0,0,1,1.5-.55l1,1.09a5.22,5.22,0,0,1,1.4,3.32Z"/><path class="cls-1" d="M176.56,25.55l.41,3.88a.86.86,0,0,1-1.45.66l-1.09-1a5.15,5.15,0,0,1-1.62-3.22L172.4,22a.86.86,0,0,1,1.45-.66l1.09,1a5.15,5.15,0,0,1,1.62,3.22Z"/><path class="cls-1" d="M170.57,21l.68,3.85a.87.87,0,0,1-1.42.76l-1.14-.94a5.13,5.13,0,0,1-1.84-3.1l-.68-3.84a.86.86,0,0,1,1.4-.76l1.16.94A5.11,5.11,0,0,1,170.57,21Z"/><path class="cls-1" d="M164.28,17l.94,3.79a.86.86,0,0,1-1.35.85l-1.21-.85a5.16,5.16,0,0,1-2-3l-1-3.79a.87.87,0,0,1,1.35-.86l1.21.86a5.22,5.22,0,0,1,2.06,3Z"/><path class="cls-1" d="M157.72,13.34l1.2,3.72a.86.86,0,0,1-1.29.94l-1.26-.77a5.09,5.09,0,0,1-2.26-2.81L152.9,10.7a.86.86,0,0,1,1.29-.93l1.27.76a5.17,5.17,0,0,1,2.26,2.81Z"/><path class="cls-1" d="M150.92,10.19l1.46,3.62a.86.86,0,0,1-1.22,1l-1.31-.68a5.1,5.1,0,0,1-2.45-2.65l-1.47-3.62a.87.87,0,0,1,1.22-1l1.32.68a5.1,5.1,0,0,1,2.45,2.65Z"/><path class="cls-1" d="M143.91,7.51,145.63,11a.87.87,0,0,1-1.14,1.12l-1.37-.59a5.17,5.17,0,0,1-2.63-2.48l-1.71-3.51a.86.86,0,0,1,1.14-1.11l1.37.59a5.14,5.14,0,0,1,2.62,2.47Z"/><path class="cls-1" d="M136.74,5.33l2,3.38a.87.87,0,0,1-1.07,1.19l-1.4-.49a5.14,5.14,0,0,1-2.79-2.28l-1.95-3.38a.86.86,0,0,1,1.06-1.19l1.4.49a5.06,5.06,0,0,1,2.79,2.28Z"/><path class="cls-1" d="M129.43,3.65l2.19,3.23a.87.87,0,0,1-1,1.27l-1.43-.39a5.15,5.15,0,0,1-2.94-2.08l-2.19-3.24a.86.86,0,0,1,1-1.26l1.43.39a5.1,5.1,0,0,1,2.94,2.08Z"/><path class="cls-1" d="M122,2.49l2.41,3.07a.87.87,0,0,1-.89,1.33L122.1,6.6A5.09,5.09,0,0,1,119,4.73l-2.4-3.08a.85.85,0,0,1,.88-1.32l1.45.29A5.07,5.07,0,0,1,122,2.49Z"/><path class="cls-1" d="M114.57,1.84l2.61,2.9a.86.86,0,0,1-.8,1.38L114.92,6a5.18,5.18,0,0,1-3.22-1.66l-2.61-2.9A.86.86,0,0,1,109.88,0l1.47.18a5.16,5.16,0,0,1,3.22,1.65Z"/><path class="cls-1" d="M107.07,1.72l2.81,2.72a.86.86,0,0,1-.7,1.43l-1.47-.09a5.06,5.06,0,0,1-3.32-1.42l-2.81-2.71a.86.86,0,0,1,.69-1.44l1.48.09a5.18,5.18,0,0,1,3.32,1.42Z"/><path class="cls-1" d="M99.58,2.12l3,2.52A.85.85,0,0,1,102,6.11l-1.48,0A5,5,0,0,1,97.1,5l-3-2.51A.86.86,0,0,1,94.69,1l1.48,0a5.19,5.19,0,0,1,3.41,1.18Z"/><path class="cls-1" d="M92.14,3.05l3.17,2.29a.87.87,0,0,1-.49,1.52L93.34,7a5.14,5.14,0,0,1-3.48-1L86.7,3.74a.86.86,0,0,1,.49-1.52l1.47-.13a5.15,5.15,0,0,1,3.48,1Z"/><path class="cls-1" d="M84.78,4.48,88.1,6.55a.86.86,0,0,1-.38,1.55l-1.47.23a5.13,5.13,0,0,1-3.54-.71L79.4,5.56A.87.87,0,0,1,79.78,4l1.46-.22a5.13,5.13,0,0,1,3.54.7Z"/><path class="cls-1" d="M77.55,6.43,81,8.26a.87.87,0,0,1-.28,1.58l-1.44.33a5.14,5.14,0,0,1-3.58-.46L72.24,7.88a.87.87,0,0,1,.28-1.57L74,6a5.17,5.17,0,0,1,3.59.46Z"/><path class="cls-1" d="M70.46,8.88,74,10.46a.87.87,0,0,1-.16,1.6l-1.43.43a5.18,5.18,0,0,1-3.6-.21L65.27,10.7a.87.87,0,0,1,.17-1.6l1.42-.43a5.18,5.18,0,0,1,3.6.21Z"/><path class="cls-1" d="M63.56,11.81l3.67,1.34a.86.86,0,0,1,0,1.59l-1.39.53a5.08,5.08,0,0,1-3.6.05L58.52,14a.87.87,0,0,1,0-1.6L60,11.86a5.19,5.19,0,0,1,3.6,0Z"/><path class="cls-1" d="M56.89,15.23l3.75,1.07a.87.87,0,0,1,.06,1.6l-1.34.62a5.22,5.22,0,0,1-3.6.3L52,17.74a.86.86,0,0,1,0-1.59l1.34-.63a5.16,5.16,0,0,1,3.6-.29Z"/><path class="cls-1" d="M50.46,19.09l3.83.81a.86.86,0,0,1,.17,1.59l-1.3.72a5.2,5.2,0,0,1-3.57.55l-3.82-.82a.86.86,0,0,1-.17-1.58l1.3-.72a5.17,5.17,0,0,1,3.56-.55Z"/><path class="cls-1" d="M44.33,23.4l3.87.54a.86.86,0,0,1,.28,1.57l-1.25.81a5.17,5.17,0,0,1-3.51.79l-3.88-.54A.86.86,0,0,1,39.56,25l1.25-.81a5.18,5.18,0,0,1,3.52-.79Z"/><path class="cls-1" d="M38.51,28.12l3.89.27a.86.86,0,0,1,.39,1.55l-1.19.89a5.13,5.13,0,0,1-3.45,1l-3.89-.27a.86.86,0,0,1-.39-1.55l1.18-.89a5.12,5.12,0,0,1,3.46-1Z"/><path class="cls-1" d="M33,33.23h3.91a.87.87,0,0,1,.49,1.53l-1.12,1A5.11,5.11,0,0,1,32.94,37H29a.86.86,0,0,1-.5-1.52l1.12-1A5.12,5.12,0,0,1,33,33.23Z"/><path class="cls-1" d="M27.92,38.73l3.9-.28a.87.87,0,0,1,.61,1.48l-1.06,1a5.1,5.1,0,0,1-3.27,1.5l-3.9.28a.86.86,0,0,1-.6-1.48l1-1a5.06,5.06,0,0,1,3.27-1.51Z"/><path class="cls-1" d="M23.22,44.55,27.09,44a.86.86,0,0,1,.7,1.43l-1,1.12a5.15,5.15,0,0,1-3.16,1.73l-3.87.55a.87.87,0,0,1-.71-1.44l1-1.11a5.17,5.17,0,0,1,3.17-1.74Z"/><path class="cls-1" d="M18.92,50.7l3.82-.81a.86.86,0,0,1,.8,1.37l-.89,1.18a5.12,5.12,0,0,1-3,2l-3.82.82a.87.87,0,0,1-.8-1.38l.9-1.18a5.13,5.13,0,0,1,3-1.95Z"/><path class="cls-1" d="M15.07,57.13,18.82,56a.87.87,0,0,1,.9,1.33l-.81,1.24A5.17,5.17,0,0,1,16,60.77l-3.75,1.08a.87.87,0,0,1-.9-1.32l.82-1.25a5.1,5.1,0,0,1,2.89-2.15Z"/><path class="cls-1" d="M11.68,63.8l3.67-1.33a.86.86,0,0,1,1,1.25L15.61,65a5.08,5.08,0,0,1-2.74,2.35L9.2,68.71a.86.86,0,0,1-1-1.25l.73-1.3a5.15,5.15,0,0,1,2.74-2.36Z"/><polygon class="cls-2" points="99.84 23.01 105.55 18.9 103.34 12.17 109.01 16.33 114.72 12.15 112.53 18.82 118.27 22.97 111.24 22.94 109.07 29.68 106.93 22.99 99.84 23.01 99.84 23.01"/><polygon class="cls-2" points="67.61 33.09 71.31 27.11 66.69 21.74 73.52 23.41 77.21 17.36 77.73 24.37 84.62 26 78.11 28.66 78.69 35.72 74.15 30.36 67.61 33.09 67.61 33.09"/><polygon class="cls-2" points="41.69 54.74 42.82 47.8 36.5 44.6 43.45 43.53 44.53 36.53 47.7 42.81 54.69 41.68 49.7 46.63 52.94 52.93 46.69 49.71 41.69 54.74 41.69 54.74"/><polygon class="cls-2" points="163.4 41.69 170.33 42.82 173.53 36.5 174.6 43.45 181.6 44.53 175.33 47.7 176.45 54.69 171.5 49.7 165.2 52.94 168.42 46.69 163.4 41.69 163.4 41.69"/><polygon class="cls-2" points="133.48 26.03 140.32 24.42 140.86 17.35 144.5 23.36 151.39 21.69 146.8 27.01 150.51 33.04 144.03 30.33 139.45 35.73 140.03 28.72 133.48 26.03 133.48 26.03"/><path class="cls-1" d="M62,59.65l3.5,3.87c1,1.17,2,1.36,2.8.65s.73-1.68-.34-2.87l-3.5-3.87L66,56.06l3.42,3.77c1.87,2.08,1.72,4,0,5.61s-3.54,1.49-5.48-.65L60.49,61,62,59.65Z"/><path class="cls-1" d="M73.56,55.59l.68-.43c.86-.55,1.1-1.31.67-2s-1.15-.75-2-.26a5.47,5.47,0,0,0-.75.56l1.35,2.11ZM69.74,53.4a17.7,17.7,0,0,1,2.2-1.63,4.57,4.57,0,0,1,2.86-1,2.28,2.28,0,0,1,1.73,1.15,2.4,2.4,0,0,1-.15,2.74l0,0a2.29,2.29,0,0,1,1.94.77c.79.71,1.66,1.56,2,1.76l-1.77,1.13a11,11,0,0,1-1.67-1.44c-.82-.82-1.31-.87-2-.43l-.52.33,1.92,3-1.72,1.09L69.74,53.4Z"/><path class="cls-1" d="M80.65,47.05l3.91,8.19-1.86.89-3.9-8.19,1.85-.89Zm-2.38-.45a.94.94,0,0,1,.45-1.25.93.93,0,0,1,.8,1.67.94.94,0,0,1-1.25-.42Z"/><path class="cls-1" d="M89.4,53.29l-1.17-3.53-4.41-4.17L86,44.85l1.57,1.77c.47.54.81.94,1.21,1.43h0c0-.6.06-1.16.11-1.86l.18-2.36,2.18-.73-1.16,6,1.19,3.59-1.94.65Z"/><polygon class="cls-1" points="101.11 46.53 97.82 47.09 98.19 49.22 101.86 48.59 102.14 50.25 96.44 51.23 94.91 42.27 100.43 41.33 100.72 42.99 97.23 43.59 97.54 45.45 100.83 44.88 101.11 46.53 101.11 46.53"/><polygon class="cls-1" points="106.49 42.62 104.06 42.67 104.02 40.95 110.99 40.8 111.03 42.52 108.55 42.58 108.71 49.93 106.66 49.97 106.49 42.62 106.49 42.62"/><path class="cls-1" d="M114.73,39.65a.93.93,0,0,1,1-.83.9.9,0,0,1,.81,1,.93.93,0,0,1-1,.83,1,1,0,0,1-.85-1Zm1.8,1.62-.87,9-2-.2.87-9,2,.19Z"/><path class="cls-1" d="M128.2,49.05v-2c0-.56,0-1.25.07-1.81h0c-.29.48-.61,1.1-.91,1.56l-1.07,1.68,1.92.58Zm-2.65.81-1.3,2-2-.62,5.29-7.88,2.57.78.06,9.5L128,53V50.61l-2.48-.75Z"/><path class="cls-1" d="M134.89,54.13a3.77,3.77,0,0,0,.62.36c1.66.85,3.19.48,4.17-1.46a2.6,2.6,0,0,0-1.25-3.86,4.47,4.47,0,0,0-.86-.34l-2.68,5.3Zm1.5-7.54A18.36,18.36,0,0,1,139,47.67a5.89,5.89,0,0,1,2.88,2.54,4,4,0,0,1-.17,3.75,4.61,4.61,0,0,1-3,2.6,6.52,6.52,0,0,1-4.27-.84,18.32,18.32,0,0,1-2-1.17l4-8Z"/><path class="cls-1" d="M147.25,59l.69-1.89c.19-.53.46-1.16.68-1.68h0c-.42.35-.94.82-1.37,1.16l-1.58,1.22,1.61,1.2Zm-2.77-.14-1.9,1.49L140.87,59l7.63-5.64,2.16,1.6-3.14,9-1.77-1.31.82-2.29-2.09-1.55Z"/><polygon class="cls-1" points="155.74 59.28 157.19 60.74 151.96 65.91 154.5 68.48 153.27 69.69 149.28 65.66 155.74 59.28 155.74 59.28"/><path class="cls-1" d="M185.1,184.89h-3.9a.86.86,0,0,1-.5-1.51l1.12-1a5.16,5.16,0,0,1,3.38-1.28h3.9a.86.86,0,0,1,.5,1.52l-1.12,1a5.18,5.18,0,0,1-3.38,1.27Z"/><path class="cls-1" d="M190.21,179.41l-3.9.27a.87.87,0,0,1-.6-1.48l1.06-1a5.1,5.1,0,0,1,3.27-1.5l3.9-.28a.87.87,0,0,1,.6,1.48l-1,1.05a5.19,5.19,0,0,1-3.28,1.51Z"/><path class="cls-1" d="M194.93,173.58l-3.88.54a.86.86,0,0,1-.7-1.43l1-1.11a5.06,5.06,0,0,1,3.16-1.73l3.87-.56a.86.86,0,0,1,.7,1.43l-1,1.13a5.18,5.18,0,0,1-3.16,1.73Z"/><path class="cls-1" d="M199.22,167.44l-3.83.8a.85.85,0,0,1-.79-1.37l.89-1.19a5.19,5.19,0,0,1,3-2l3.82-.8a.86.86,0,0,1,.81,1.37l-.9,1.19a5.19,5.19,0,0,1-3,1.95Z"/><path class="cls-1" d="M203.07,161l-3.75,1.07a.87.87,0,0,1-.91-1.32l.82-1.24a5.15,5.15,0,0,1,2.89-2.16l3.75-1.07a.87.87,0,0,1,.91,1.32l-.82,1.24a5.15,5.15,0,0,1-2.89,2.16Z"/><path class="cls-1" d="M206.46,154.32l-3.66,1.34a.87.87,0,0,1-1-1.26l.72-1.29a5.17,5.17,0,0,1,2.74-2.35l3.66-1.33a.87.87,0,0,1,1,1.25L209.2,152a5,5,0,0,1-2.74,2.35Z"/><path class="cls-1" d="M209.39,147.42,205.82,149a.87.87,0,0,1-1.08-1.18l.64-1.34a5.11,5.11,0,0,1,2.56-2.54l3.57-1.59a.86.86,0,0,1,1.07,1.18l-.63,1.34a5.15,5.15,0,0,1-2.56,2.54Z"/><path class="cls-1" d="M211.82,140.33l-3.45,1.84a.86.86,0,0,1-1.15-1.1l.53-1.39a5.24,5.24,0,0,1,2.38-2.71l3.45-1.83a.86.86,0,0,1,1.15,1.1l-.53,1.38a5.16,5.16,0,0,1-2.38,2.71Z"/><path class="cls-1" d="M213.75,133.1l-3.31,2.07a.87.87,0,0,1-1.23-1l.44-1.41a5.17,5.17,0,0,1,2.19-2.88l3.31-2.06a.86.86,0,0,1,1.22,1l-.43,1.41a5.17,5.17,0,0,1-2.19,2.88Z"/><path class="cls-1" d="M215.17,125.73,212,128a.86.86,0,0,1-1.29-.93l.33-1.44a5.12,5.12,0,0,1,2-3l3.16-2.3a.87.87,0,0,1,1.29.94l-.34,1.44a5.12,5.12,0,0,1-2,3Z"/><path class="cls-1" d="M216.08,118.3l-3,2.51a.87.87,0,0,1-1.36-.84l.23-1.46a5.21,5.21,0,0,1,1.77-3.15l3-2.51a.87.87,0,0,1,1.36.84l-.24,1.46a5.15,5.15,0,0,1-1.76,3.15Z"/><path class="cls-1" d="M216.46,110.81l-2.81,2.72a.86.86,0,0,1-1.41-.75l.13-1.47a5.16,5.16,0,0,1,1.54-3.27l2.81-2.71a.86.86,0,0,1,1.41.75l-.13,1.47a5.09,5.09,0,0,1-1.54,3.26Z"/><path class="cls-1" d="M216.32,103.32l-2.61,2.9a.86.86,0,0,1-1.46-.64l0-1.49a5.14,5.14,0,0,1,1.3-3.36l2.62-2.9a.86.86,0,0,1,1.46.65l0,1.48a5.2,5.2,0,0,1-1.31,3.36Z"/><path class="cls-1" d="M215.66,95.86l-2.4,3.07a.87.87,0,0,1-1.51-.54l-.07-1.48a5.11,5.11,0,0,1,1.07-3.45l2.41-3.07a.86.86,0,0,1,1.5.54l.07,1.48a5.15,5.15,0,0,1-1.07,3.45Z"/><path class="cls-1" d="M214.48,88.45l-2.19,3.24a.86.86,0,0,1-1.53-.43l-.18-1.47a5.16,5.16,0,0,1,.83-3.52L213.59,83a.87.87,0,0,1,1.54.43l.18,1.47a5.17,5.17,0,0,1-.83,3.51Z"/><path class="cls-1" d="M212.78,81.16l-1.95,3.37a.86.86,0,0,1-1.56-.32L209,82.75a5.23,5.23,0,0,1,.59-3.56l2-3.38a.86.86,0,0,1,1.56.33l.28,1.46a5.18,5.18,0,0,1-.58,3.56Z"/><path class="cls-1" d="M210.58,74l-1.71,3.52a.87.87,0,0,1-1.58-.23l-.38-1.43a5.1,5.1,0,0,1,.33-3.59L209,68.75a.86.86,0,0,1,1.58.21l.39,1.44a5.16,5.16,0,0,1-.34,3.59Z"/><path class="cls-1" d="M140.6,211.7l-3.45-1.83a.86.86,0,0,1,.27-1.57l1.44-.33a5.22,5.22,0,0,1,3.59.45l3.44,1.84a.86.86,0,0,1-.27,1.57l-1.45.32a5.06,5.06,0,0,1-3.57-.45Z"/><path class="cls-1" d="M147.68,209.26l-3.57-1.6a.86.86,0,0,1,.16-1.58l1.42-.43a5.24,5.24,0,0,1,3.6.2l3.57,1.59a.86.86,0,0,1-.16,1.59l-1.42.43a5.24,5.24,0,0,1-3.6-.2Z"/><path class="cls-1" d="M154.58,206.32,150.91,205a.86.86,0,0,1,0-1.59l1.39-.53a5.1,5.1,0,0,1,3.61,0l3.67,1.32a.87.87,0,0,1,0,1.6l-1.39.53a5.16,5.16,0,0,1-3.61,0Z"/><path class="cls-1" d="M161.25,202.91l-3.75-1.08a.87.87,0,0,1-.07-1.6l1.35-.62a5.22,5.22,0,0,1,3.6-.3l3.76,1.08a.87.87,0,0,1,.06,1.6l-1.35.62a5.22,5.22,0,0,1-3.6.3Z"/><path class="cls-1" d="M167.67,199l-3.82-.81a.86.86,0,0,1-.17-1.59l1.3-.71a5.13,5.13,0,0,1,3.57-.55l3.82.81a.87.87,0,0,1,.17,1.59l-1.3.71a5.2,5.2,0,0,1-3.57.55Z"/><path class="cls-1" d="M173.81,194.74l-3.87-.55a.86.86,0,0,1-.28-1.57l1.24-.8a5.14,5.14,0,0,1,3.52-.8l3.87.54a.87.87,0,0,1,.29,1.57l-1.25.81a5.2,5.2,0,0,1-3.52.8Z"/><path class="cls-1" d="M179.63,190l-3.9-.27a.87.87,0,0,1-.39-1.55l1.19-.89a5.16,5.16,0,0,1,3.45-1l3.9.26a.86.86,0,0,1,.39,1.55l-1.19.9a5.16,5.16,0,0,1-3.45,1Z"/><polygon class="cls-2" points="150.53 185.04 146.83 191.02 151.44 196.4 144.62 194.72 140.93 200.78 140.41 193.77 133.51 192.13 140.02 189.47 139.44 182.41 143.99 187.77 150.53 185.04 150.53 185.04"/><polygon class="cls-2" points="176.44 163.4 175.31 170.33 181.63 173.53 174.69 174.6 173.6 181.6 170.44 175.32 163.44 176.45 168.43 171.5 165.2 165.2 171.45 168.42 176.44 163.4 176.44 163.4"/><polygon class="cls-2" points="192.11 133.48 193.72 140.32 200.78 140.86 194.77 144.5 196.45 151.39 191.12 146.8 185.09 150.51 187.81 144.03 182.41 139.45 189.41 140.03 192.11 133.48 192.11 133.48"/><polygon class="cls-2" points="195.13 99.84 199.23 105.55 205.97 103.34 201.81 109.01 205.99 114.73 199.31 112.53 195.16 118.27 195.2 111.24 188.45 109.07 195.15 106.93 195.13 99.84 195.13 99.84"/><polygon class="cls-2" points="185.05 67.61 191.02 71.31 196.4 66.69 194.73 73.52 200.78 77.2 193.77 77.72 192.13 84.62 189.47 78.11 182.41 78.69 187.78 74.15 185.05 67.61 185.05 67.61"/><polygon class="cls-1" points="161.14 73.61 159.15 70.92 157.42 72.21 159.65 75.21 158.29 76.21 154.84 71.56 162.12 66.14 165.46 70.64 164.12 71.64 162 68.8 160.49 69.93 162.48 72.61 161.14 73.61 161.14 73.61"/><polygon class="cls-1" points="167.07 76.6 165.91 74.46 167.43 73.64 170.74 79.78 169.22 80.6 168.04 78.42 161.58 81.91 160.6 80.09 167.07 76.6 167.07 76.6"/><path class="cls-1" d="M171,90.63l.18.65c.29,1,.88,1.47,1.52,1.29s.87-.79.62-1.68a4.77,4.77,0,0,0-.29-.83l-2,.57Zm-3.88,1.08a7.67,7.67,0,0,0,.19.78c.25.89.81,1.59,1.73,1.33s1-1.14.73-2.12l-.19-.68-2.46.69Zm6.67-4a15,15,0,0,1,.9,2.5,5,5,0,0,1,.23,2.72,2,2,0,0,1-1.42,1.52,2.05,2.05,0,0,1-2.27-.91h0a2.28,2.28,0,0,1-1.67,2.34,2.44,2.44,0,0,1-2.11-.39,5.81,5.81,0,0,1-1.75-3.22,16.34,16.34,0,0,1-.47-2.17l8.58-2.4Z"/><path class="cls-1" d="M171.77,103.08l1.86-.77c.51-.22,1.16-.45,1.69-.65v0c-.55-.08-1.24-.14-1.78-.23l-2-.32.21,2ZM170,101l-2.39-.39-.23-2.11,9.32,1.77.3,2.67-8.72,3.79-.23-2.2,2.23-.95L170,101Z"/><path class="cls-1" d="M177.33,109.61l-.11,2-4-.23v0c.34.22.65.46,1,.68l2.89,2.23-.14,2.51-3.69-3.22-5.38,2.87.14-2.4,4-2-.91-.84-3-.17.11-2,9.06.52Z"/><path class="cls-1" d="M170.21,124.17l2-.11c.56,0,1.26,0,1.81,0v0c-.49-.25-1.14-.54-1.62-.8l-1.75-1-.45,2Zm-1-2.59-2.12-1.15.48-2.07,8.21,4.74-.6,2.63-9.48.7.5-2.16,2.43-.15.58-2.54Z"/><path class="cls-1" d="M165,128.68l8.37,3.54-.94,2.21-3.8.44a26.32,26.32,0,0,1-3.44.15l0,0a34.17,34.17,0,0,1,3.56,1.31l2.44,1-.73,1.73L162,135.61l.84-2,4-.42a34.92,34.92,0,0,1,3.57-.21v0c-1.12-.42-2.31-.89-3.68-1.47l-2.52-1.06.74-1.74Z"/><polygon class="cls-1" points="168.19 143.16 167.09 144.91 160.87 141 158.95 144.06 157.49 143.14 160.5 138.34 168.19 143.16 168.19 143.16"/><polygon class="cls-1" points="161.75 152.39 154.66 146.73 155.94 145.12 163.04 150.78 161.75 152.39 161.75 152.39"/><path class="cls-1" d="M158.05,159.7a.7.7,0,0,0-1,.1.77.77,0,0,0-.19,1l-.76.72a1.66,1.66,0,0,1,.19-2.53,1.63,1.63,0,0,1,2.54-.08l-.78.75Zm-10.56-5a10,10,0,0,1,1.84-2.47,5.08,5.08,0,0,1,3.51-1.67,4.41,4.41,0,0,1,3.21,1.5c2.08,2.19,1.69,4.95-.47,7a6.22,6.22,0,0,1-2.12,1.43l-.82-1.49a5.1,5.1,0,0,0,1.79-1.18,3,3,0,0,0-4-4.37,2.51,2.51,0,0,0-.63.8l1.31,1.37,1-1,1.11,1.15-2.44,2.34-3.31-3.45Z"/><polygon class="cls-1" points="148.4 164.78 143.05 157.44 144.72 156.23 150.06 163.57 148.4 164.78 148.4 164.78"/><path class="cls-1" d="M109.08,170.76a2.62,2.62,0,1,0,2.63,2.62,2.62,2.62,0,0,0-2.63-2.62Z"/><path class="cls-1" d="M88.79,88.42a1,1,0,1,0-1.05-1A1,1,0,0,0,88.79,88.42Z"/><path class="cls-1" d="M109.06,53.5a55.56,55.56,0,1,0,55.57,55.56A55.64,55.64,0,0,0,109.06,53.5Zm34.66,75.77-4,2.35c-14.9-.74-21.5,4-27.45,8.73C122.49,129.37,133.81,128.52,143.72,129.27Zm-15.38-2.18a10.88,10.88,0,0,1-10.08-6.79h20.16A10.88,10.88,0,0,1,128.34,127.09Zm6.64-7.27-6.65-28-6.64,28h-1.17L127.6,90a1.65,1.65,0,0,0,.32.07,1.84,1.84,0,0,0,.41,0,2.55,2.55,0,0,0,.74-.11l7.08,29.85Zm-6.65-34.88a2.43,2.43,0,1,1-2.42,2.42A2.42,2.42,0,0,1,128.33,84.94ZM117.11,68.15l1.11,1.52,3.15-1-2,2.68.52.7,1.43,2-3.15-1-2,2.68V72.35l-3.15-1,3.15-1V67Zm-19-1.62A9,9,0,0,1,102.1,63a8.65,8.65,0,0,1,1.08-.42,9.14,9.14,0,0,1,10.43,3.84,7.33,7.33,0,0,0-8.46-1.77,7.56,7.56,0,0,0-1,.54,7.39,7.39,0,0,0-3.08,4.29,7.18,7.18,0,0,0-.23,1.81,7.3,7.3,0,0,0,7.3,7.3h0a7.15,7.15,0,0,0,1.4-.13,7.34,7.34,0,0,0,4-2.29,9.14,9.14,0,0,1-3.29,3.1,8.88,8.88,0,0,1-4,1.13,3.54,3.54,0,0,1-.46,0,9.12,9.12,0,0,1-9.12-9.13A9,9,0,0,1,98.15,66.53ZM91.27,86.2h34.58a1.66,1.66,0,0,0-.44,1.18,1.72,1.72,0,0,0,.44,1.17H108.57L109.81,96l.08,34.77h1.88V132H110v7.18h1v1c-4.57,0-3.92-.72-3.92-8.22h-1.67v-1.21h1.89V96l1.32-7.49H91.27a1.81,1.81,0,0,0,0-2.34ZM88.79,85a2.42,2.42,0,1,1-2.42,2.42A2.42,2.42,0,0,1,88.79,85Zm-.74,5a2.6,2.6,0,0,0,.74.12,3,3,0,0,0,.42,0l.32-.08,7.08,29.85H95.44l-6.65-28-6.64,28H81ZM98.88,120.3a10.88,10.88,0,0,1-20.16,0Zm7,20c-6-4.7-12.56-9.47-27.46-8.73l-4-2.34C84.34,128.52,95.65,129.38,105.91,140.35Zm3.16,5.52c8.73-11.54,24.21-13.92,36.79-10.69l-3.37,2c-11.11-1.61-23.78-.74-33.39,8.71,0,.06.09.11.13.16l-.16-.14-.15.14c0-.05.09-.1.13-.16-9.62-9.45-22.29-10.31-33.4-8.7l-3.37-2C84.86,132,100.34,134.33,109.07,145.87Zm34.41-.78c-12.4-3.88-25.46-4.62-34.35,6.72v.13l-.06-.06,0,.06v-.13c-8.9-11.34-22-10.59-34.35-6.71l-5-2.65c17.74-7.08,31.36-2.83,39.38,5.51,8-8.35,21.65-12.6,39.38-5.52Z"/><path class="cls-1" d="M128.33,88.41a1,1,0,1,0-1.05-1A1,1,0,0,0,128.33,88.41Z"/></g></g></svg>